# xmcd
# 
# Track frame offsets:
#     150
#     37937
#     51700
#     68987
#     91037
#     104312
#     119762
#     140762
#     158687
#     174112
# 
# Disc length: 2560
# 
# Revision: 6
# Processed by: cddbd v1.5.2PL0 Copyright (c) Steve Scherf et al.
# Submitted via: BonkEnc v1.0.6
# 
DISCID=8609fe0a
DTITLE=Hobo Blues Band - Oly sokáig voltunk lenn...
DYEAR=1982
DGENRE=Blues
TTITLE0=Tisztelet Muddy Waters-nek
TTITLE1=Enyém, tied, miénk
TTITLE2=Kőbánya Blues
TTITLE3=Tetovált lány
TTITLE4=Hosszúlábú asszony
TTITLE5=Oly sokáig voltunk lenn...
TTITLE6=Mata Hari
TTITLE7=Nem hallod, üvöltök
TTITLE8=A hetedik
TTITLE9=Halál Apa Blues
EXTD=
EXTT0=
EXTT1=
EXTT2=
EXTT3=
EXTT4=
EXTT5=
EXTT6=
EXTT7=
EXTT8=
EXTT9=
PLAYORDER=
